<svg width="24" height="24" viewBox="0 0 24 24" xmlns="http://www.w3.org/2000/svg" xmlns:xlink="http://www.w3.org/1999/xlink">
    <path id="path1" fill="#284d48" stroke="none" d="M 20.447001 20.452 L 16.893 20.452 L 16.893 14.883 C 16.893 13.555 16.865999 11.846 15.041 11.846 C 13.188 11.846 12.905 13.291 12.905 14.785 L 12.905 20.452 L 9.351 20.452 L 9.351 9 L 12.765 9 L 12.765 10.561 L 12.811 10.561 C 13.288 9.661 14.448 8.711 16.181 8.711 C 19.782 8.711 20.448 11.081 20.448 14.166 L 20.448 20.452 Z M 5.337 7.433001 C 4.193 7.433001 3.274 6.507 3.274 5.368 C 3.274 4.23 4.194 3.305 5.337 3.305 C 6.477 3.305 7.401 4.23 7.401 5.368 C 7.401 6.507 6.476 7.433001 5.337 7.433001 Z M 7.119 20.452 L 3.555 20.452 L 3.555 9 L 7.119 9 L 7.119 20.452 Z M 22.225 0 L 1.771 0 C 0.792 0 0 0.774 0 1.729 L 0 22.271 C 0 23.226999 0.792 24 1.771 24 L 22.222 24 C 23.200001 24 24 23.226999 24 22.271 L 24 1.729 C 24 0.774 23.200001 0 22.222 0 L 22.225 0 Z"/>
</svg>
